<svg width="27" height="46" viewBox="0 0 27 46" fill="none" xmlns="http://www.w3.org/2000/svg">
<path d="M1 42.3438L18.0938 19.9688C19.2188 18.5104 20.0833 17.0833 20.6875 15.6875C21.3125 14.2708 21.625 13.0208 21.625 11.9375V11.875C21.625 9.45833 20.9271 7.59375 19.5312 6.28125C18.1354 4.94792 16.1667 4.28125 13.625 4.28125C11.25 4.28125 9.32292 4.98958 7.84375 6.40625C6.38542 7.82292 5.48958 9.83333 5.15625 12.4375V12.4688H0.4375V12.4375C0.8125 9.83333 1.57292 7.61458 2.71875 5.78125C3.88542 3.92708 5.38542 2.52083 7.21875 1.5625C9.05208 0.583333 11.1667 0.09375 13.5625 0.09375C16.2708 0.09375 18.5833 0.5625 20.5 1.5C22.4167 2.41667 23.875 3.76042 24.875 5.53125C25.875 7.30208 26.375 9.4375 26.375 11.9375V11.9688C26.375 13.3854 25.9583 15.0104 25.125 16.8438C24.3125 18.6771 23.1667 20.5521 21.6875 22.4688L6.65625 41.8125H26.625V46H1V42.3438Z" fill="#392AE5"/>
</svg>
