<svg width="28" height="47" viewBox="0 0 28 47" fill="none" xmlns="http://www.w3.org/2000/svg">
<path d="M14.4375 46.4688C11.8958 46.4688 9.65625 46.0208 7.71875 45.125C5.78125 44.2292 4.21875 42.9271 3.03125 41.2188C1.86458 39.4896 1.125 37.4167 0.8125 35H5.34375C5.59375 36.5208 6.11458 37.8229 6.90625 38.9062C7.69792 39.9896 8.72917 40.8125 10 41.375C11.2917 41.9375 12.7708 42.2188 14.4375 42.2188C17.1458 42.2188 19.2396 41.5 20.7188 40.0625C22.2188 38.6042 22.9688 36.5521 22.9688 33.9062V32.5312C22.9688 29.9688 22.25 27.9896 20.8125 26.5938C19.375 25.1771 17.3542 24.4688 14.75 24.4688H11.5312V20.2812H14.75C17.125 20.2812 18.9583 19.6667 20.25 18.4375C21.5625 17.2083 22.2188 15.4792 22.2188 13.25V11.8438C22.2188 9.44792 21.5312 7.60417 20.1562 6.3125C18.8021 5 16.8854 4.34375 14.4062 4.34375C13.0104 4.34375 11.75 4.61458 10.625 5.15625C9.5 5.69792 8.54167 6.47917 7.75 7.5C6.97917 8.52083 6.41667 9.76042 6.0625 11.2188H1.5625C1.97917 8.88542 2.76042 6.88542 3.90625 5.21875C5.07292 3.55208 6.54167 2.28125 8.3125 1.40625C10.1042 0.53125 12.1354 0.09375 14.4062 0.09375C18.3229 0.09375 21.3542 1.125 23.5 3.1875C25.6458 5.25 26.7188 8.15625 26.7188 11.9062V13.2812C26.7188 15.4062 26.2083 17.2604 25.1875 18.8438C24.1875 20.4062 22.7604 21.5521 20.9062 22.2812C22.9896 22.7812 24.6042 23.9271 25.75 25.7188C26.8958 27.5104 27.4688 29.7917 27.4688 32.5625V33.9375C27.4688 36.5833 26.9583 38.8438 25.9375 40.7188C24.9167 42.5938 23.4271 44.0208 21.4688 45C19.5312 45.9792 17.1875 46.4688 14.4375 46.4688Z" fill="#392AE5"/>
</svg>
