<svg width="90" height="90" viewBox="0 0 90 90" fill="none" xmlns="http://www.w3.org/2000/svg">
<path d="M63.75 7.5H26.25C15.8947 7.5 7.5 15.8947 7.5 26.25V63.75C7.5 74.1053 15.8947 82.5 26.25 82.5H63.75C74.1053 82.5 82.5 74.1053 82.5 63.75V26.25C82.5 15.8947 74.1053 7.5 63.75 7.5Z" stroke="#392AE5" stroke-width="6.98014" stroke-linecap="round" stroke-linejoin="round"/>
<path d="M59.9989 42.6386C60.4617 45.7596 59.9286 48.9469 58.4755 51.7474C57.0224 54.5479 54.7232 56.8189 51.905 58.2374C49.0868 59.6559 45.8931 60.1496 42.7781 59.6484C39.6631 59.1471 36.7855 57.6764 34.5545 55.4455C32.3236 53.2145 30.8529 50.3369 30.3517 47.2219C29.8504 44.107 30.3441 40.9132 31.7626 38.095C33.1811 35.2768 35.4521 32.9777 38.2526 31.5245C41.0531 30.0714 44.2405 29.5383 47.3614 30.0011C50.5449 30.4732 53.4921 31.9566 55.7678 34.2323C58.0434 36.5079 59.5268 39.4552 59.9989 42.6386Z" stroke="#392AE5" stroke-width="6.98014" stroke-linecap="round" stroke-linejoin="round"/>
<path d="M65.625 24.375H65.6625" stroke="#392AE5" stroke-width="6.98014" stroke-linecap="round" stroke-linejoin="round"/>
</svg>
