<svg width="90" height="90" viewBox="0 0 90 90" fill="none" xmlns="http://www.w3.org/2000/svg">
<path d="M60 30C65.9674 30 71.6903 32.3705 75.9099 36.5901C80.1295 40.8097 82.5 46.5326 82.5 52.5V78.75H67.5V52.5C67.5 50.5109 66.7098 48.6032 65.3033 47.1967C63.8968 45.7902 61.9891 45 60 45C58.0109 45 56.1032 45.7902 54.6967 47.1967C53.2902 48.6032 52.5 50.5109 52.5 52.5V78.75H37.5V52.5C37.5 46.5326 39.8705 40.8097 44.0901 36.5901C48.3097 32.3705 54.0326 30 60 30V30Z" stroke="#392AE5" stroke-width="7.16667" stroke-linecap="round" stroke-linejoin="round"/>
<path d="M22.5 33.75H7.5V78.75H22.5V33.75Z" stroke="#392AE5" stroke-width="7.16667" stroke-linecap="round" stroke-linejoin="round"/>
<path d="M15 22.5C19.1421 22.5 22.5 19.1421 22.5 15C22.5 10.8579 19.1421 7.5 15 7.5C10.8579 7.5 7.5 10.8579 7.5 15C7.5 19.1421 10.8579 22.5 15 22.5Z" stroke="#392AE5" stroke-width="7.16667" stroke-linecap="round" stroke-linejoin="round"/>
</svg>
